<svg width="38" height="38" viewBox="0 0 38 38" fill="none" xmlns="http://www.w3.org/2000/svg">
<circle cx="19" cy="19" r="19" fill="#FACD3F"/>
<g clip-path="url(#clip0)">
<path d="M24.6838 12.2021C24.6638 12.1287 24.6141 12.0669 24.5466 12.0317C24.4134 11.9613 24.2483 12.0121 24.1777 12.1453C24.1776 12.1456 24.1774 12.146 24.1772 12.1463C24.1772 12.1539 22.7947 14.836 18.5506 15.3034C17.9969 15.3625 17.4558 15.5069 16.9464 15.7316C16.0346 16.128 15.2815 16.8179 14.807 17.6916C14.364 18.5122 14.1805 19.448 14.2808 20.3752C14.3547 21.0511 14.5805 21.7016 14.9412 22.2779C14.1873 22.8192 11.7962 24.6902 11.5806 26.6984C11.5647 26.8483 11.6734 26.9826 11.8233 26.9985C11.9732 27.0143 12.1075 26.9056 12.1233 26.7557C12.3208 24.9631 14.5643 23.2247 15.2638 22.7212C16.1036 23.7524 17.361 24.3344 18.7104 24.4294C19.6186 24.488 20.5278 24.3331 21.3654 23.9771C22.2746 23.5956 23.0776 22.999 23.7053 22.2387C25.3231 20.2787 26.0935 16.9845 24.6838 12.2021ZM15.4206 22.008C15.3166 21.8442 15.2249 21.6728 15.1462 21.4954C14.9807 21.121 14.8739 20.7234 14.8296 20.3164C14.7373 19.4998 14.895 18.6744 15.2819 17.9494C15.7002 17.1807 16.3636 16.5741 17.1665 16.2261C17.6256 16.0262 18.1128 15.8986 18.6109 15.8477C21.4121 15.5461 23.06 14.2993 23.9104 13.3947C23.4108 15.0395 22.5506 16.5522 21.3925 17.8227L21.2267 16.1522C21.2183 16.0018 21.0894 15.8866 20.939 15.895C20.7885 15.9035 20.6733 16.0323 20.6818 16.1828C20.6822 16.1902 20.6829 16.1976 20.6839 16.205L20.8965 18.3519C19.6286 19.638 17.8661 20.9301 15.4206 22.008ZM23.2832 21.8889V21.8904C22.7128 22.5848 21.9822 23.1302 21.1543 23.4795C20.393 23.8013 19.5667 23.9397 18.742 23.8836C17.5941 23.8254 16.5168 23.3115 15.7493 22.4558C16.6487 22.0578 17.5183 21.5958 18.3516 21.0733L20.7473 21.5256C20.8961 21.5489 21.0357 21.4471 21.0591 21.2982C21.0816 21.1546 20.9875 21.0186 20.8453 20.9889L19.0044 20.6406C19.8544 20.0568 20.6456 19.3918 21.3669 18.655C21.3801 18.6436 21.3922 18.631 21.4031 18.6173C23.3058 16.6362 24.1154 14.6762 24.4531 13.4701C25.3849 17.4443 24.6717 20.2094 23.2832 21.8889Z" fill="black"/>
</g>
<defs>
<clipPath id="clip0">
<rect x="11" y="12" width="15" height="15" fill="white"/>
</clipPath>
</defs>
</svg>
